<svg width="1700" height="404" viewBox="0 0 1700 404" fill="none" xmlns="http://www.w3.org/2000/svg">
<path d="M1561.69 401.429H1418.29C1381.89 401.429 1369.37 401.429 1369.37 401.429C1369.37 401.429 1359.08 290.074 1476.94 290.074C1594.8 290.074 1589.94 290.074 1589.94 290.074C1589.94 290.074 1589.94 284.642 1589.94 273.235V256.396H1476.95C1398.19 256.396 1359.08 211.31 1359.08 128.201C1359.08 42.919 1400.9 0.00636412 1485.1 0.00636412H1607.32C1643.17 0.00636412 1698.09 0 1698.09 0C1698.09 0 1717.06 111.362 1606.78 111.362H1455.22C1455.22 111.362 1455.22 116.794 1455.22 128.201C1455.22 139.608 1455.22 145.04 1455.22 145.04H1568.75C1646.97 145.04 1686.63 190.125 1686.63 273.235C1686.63 358.517 1645.34 401.429 1561.69 401.429Z" fill="white"/>
<path d="M1205.93 404.009V55.0746C1205.93 19.6443 1230.53 0.855469 1260.47 0.855469C1289.34 0.855469 1314.47 0.860254 1314.47 0.860254V349.79C1314.47 384.684 1289.34 404.009 1260.47 404.009C1230.53 404.009 1205.93 404.009 1205.93 404.009Z" fill="white"/>
<path d="M1093.49 401.425H966.234C846.585 394.921 761.43 314.156 761.43 199.785C761.43 89.7505 844.429 0.855469 974.857 0.855469H1066.48C1100.97 0.855469 1156.83 0.858208 1156.83 0.858208C1156.83 0.858208 1142.62 113.058 1066.48 113.058H953.838C906.409 113.058 873.533 153.712 873.533 200.869C873.533 252.363 914.494 290.306 965.695 290.306H990.487L992.643 158.876H1156.83C1156.83 158.876 1174.6 253.38 1093.49 253.38V401.425Z" fill="white"/>
<path d="M704.489 401.427H493.097C456.16 401.427 438.234 382.415 438.234 346.021V55.41C438.234 18.4726 456.16 0.00390625 493.097 0.00390625H713.635V111.359H547.96V148.84H694.223C694.223 148.84 690.452 175.293 690.452 198.552C690.452 221.811 698.205 253.134 698.205 253.134H547.96V290.071H712.418C712.418 305.802 739.449 375.578 762.708 401.427C762.708 401.427 739.254 401.427 704.489 401.427Z" fill="white"/>
<path d="M294.842 404.005L285.713 347.102H146.092L126.789 404.005C126.789 404.005 109.576 404.005 89.1702 404.005C86.7516 404.005 84.1709 404.005 81.4678 404.005C43.4133 404.005 18.8644 364.899 33.859 329.924L94.5402 195.181C105.28 171.024 133.689 97.8585 133.689 97.8585L205.99 264.908H249.487C246.265 257.392 138.273 0.855469 138.273 0.855469C138.273 0.855469 171.331 0.855469 201.403 0.855469C253.607 0.855469 278.158 27.9908 297.825 74.9327L401.681 332.268C415.528 366.578 390.259 404.005 353.26 404.005C349.465 404.005 345.887 404.005 342.635 404.005C321.692 404.005 294.842 404.005 294.842 404.005Z" fill="white"/>
</svg>
