<svg width="3401" height="3336" viewBox="0 0 3401 3336" fill="none" xmlns="http://www.w3.org/2000/svg">
<path d="M2352.48 3336L2276.95 2865.13H1121.75L962.036 3336C962.036 3336 819.62 3336 650.783 3336C514.158 3336 315.023 3336 158.064 3336C43.5618 3336 -32.458 3217.43 15.2992 3113.37C88.9602 2952.85 177.942 2758.45 193.145 2722.99L695.214 1608.01C784.076 1408.12 1019.13 802.685 1019.13 802.685L1617.34 2184.99H1977.23C1950.57 2122.8 1057.05 0 1057.05 0C1057.05 0 1330.57 1.55595e-10 1579.39 1.55595e-10C2011.31 0 2214.44 224.541 2377.17 612.978L3388.94 3120.25C3430.58 3223.44 3354.73 3336 3243.45 3336C3086.08 3336 2883.02 3336 2747.92 3336C2574.64 3336 2352.48 3336 2352.48 3336Z" fill="white"/>
</svg>
