<svg width="3401" height="3336" viewBox="0 0 3401 3336" fill="none" xmlns="http://www.w3.org/2000/svg">
<path d="M1579.39 34.5C1788.79 34.5001 1939.26 88.6966 2057.09 187.284C2175.93 286.726 2264.75 433.953 2345.28 626.159L3356.94 3133.16C3389.45 3213.71 3330.24 3301.5 3243.45 3301.5H2381.89L2311.02 2859.67L2306.36 2830.63H1097.02L1089.08 2854.05L937.308 3301.5H158.063C68.7157 3301.5 9.38231 3208.98 46.6553 3127.76C119.93 2968.08 208.881 2773.76 224.71 2736.91L726.672 1622.18L726.706 1622.1L726.739 1622.03C771.515 1521.3 852.769 1319.26 922.568 1143.1C957.527 1054.86 989.706 972.889 1013.14 912.975C1015.81 906.157 1018.36 899.625 1020.79 893.401L1585.67 2198.69L1594.68 2219.49H2029.55L2008.94 2171.4C1995.66 2140.43 1765.7 1594.38 1538.94 1055.79C1425.58 786.55 1313.06 519.258 1228.88 319.274C1186.79 219.283 1151.78 136.118 1127.29 77.9512C1120.32 61.3741 1114.19 46.8272 1109 34.5H1579.39Z" stroke="white" stroke-width="69"/>
</svg>
